<svg xmlns="http://www.w3.org/2000/svg" width="810" height="600"><rect width="810" height="600" x="0" y="0" fill="#FFFFFF" id="backgorund"/><g id="viz"><clipPath id="serieClipPath"><rect x="-50" y="-10" width="810" height="600"/></clipPath><g transform="translate(0,0)"><g transform="translate(50,10)" clip-path="url(#serieClipPath)"><g id="axis"><g transform="translate(0,570)" fill="none" font-size="10" font-family="sans-serif" text-anchor="middle"><path class="domain" stroke="currentColor" d="M0,6V0H735V6"/><g class="tick" opacity="1" transform="translate(0,0)"><line stroke="currentColor" y2="6"/><text fill="currentColor" y="9" dy="0.71em">Jan 03</text></g><g class="tick" opacity="1" transform="translate(56.53846153846154,0)"><line stroke="currentColor" y2="6"/><text fill="currentColor" y="9" dy="0.71em">Jan 10</text></g><g class="tick" opacity="1" transform="translate(113.07692307692308,0)"><line stroke="currentColor" y2="6"/><text fill="currentColor" y="9" dy="0.71em">Jan 17</text></g><g class="tick" opacity="1" transform="translate(169.6153846153846,0)"><line stroke="currentColor" y2="6"/><text fill="currentColor" y="9" dy="0.71em">Jan 24</text></g><g class="tick" opacity="1" transform="translate(226.15384615384616,0)"><line stroke="currentColor" y2="6"/><text fill="currentColor" y="9" dy="0.71em">Jan 31</text></g><g class="tick" opacity="1" transform="translate(282.69230769230774,0)"><line stroke="currentColor" y2="6"/><text fill="currentColor" y="9" dy="0.71em">Feb 07</text></g><g class="tick" opacity="1" transform="translate(339.2307692307692,0)"><line stroke="currentColor" y2="6"/><text fill="currentColor" y="9" dy="0.71em">Feb 14</text></g><g class="tick" opacity="1" transform="translate(395.7692307692308,0)"><line stroke="currentColor" y2="6"/><text fill="currentColor" y="9" dy="0.71em">Feb 21</text></g><g class="tick" opacity="1" transform="translate(452.3076923076923,0)"><line stroke="currentColor" y2="6"/><text fill="currentColor" y="9" dy="0.71em">Feb 28</text></g><g class="tick" opacity="1" transform="translate(508.8461538461538,0)"><line stroke="currentColor" y2="6"/><text fill="currentColor" y="9" dy="0.71em">Mar 06</text></g><g class="tick" opacity="1" transform="translate(565.3846153846155,0)"><line stroke="currentColor" y2="6"/><text fill="currentColor" y="9" dy="0.71em">Mar 13</text></g><g class="tick" opacity="1" transform="translate(621.9230769230769,0)"><line stroke="currentColor" y2="6"/><text fill="currentColor" y="9" dy="0.71em">Mar 20</text></g><g class="tick" opacity="1" transform="translate(678.4615384615385,0)"><line stroke="currentColor" y2="6"/><text fill="currentColor" y="9" dy="0.71em">Mar 27</text></g><g class="tick" opacity="1" transform="translate(735,0)"><line stroke="currentColor" y2="6"/><text fill="currentColor" y="9" dy="0.71em">Apr 03</text></g><text x="735" dy="-5" text-anchor="end" style="font-family: Arial, sans-serif; font-size: 12px; fill: rgb(123, 123, 123); font-weight: bold;">日期</text></g><g transform="translate(0,0)" fill="none" font-size="10" font-family="sans-serif" text-anchor="end"><path class="domain" stroke="currentColor" d="M0,570V0"/><g class="tick" opacity="1" transform="translate(0,570)"><line stroke="currentColor" x2="-6"/><text fill="currentColor" x="-9" dy="0.32em">440</text></g><g class="tick" opacity="1" transform="translate(0,518.1818181818181)"><line stroke="currentColor" x2="-6"/><text fill="currentColor" x="-9" dy="0.32em">450</text></g><g class="tick" opacity="1" transform="translate(0,466.3636363636363)"><line stroke="currentColor" x2="-6"/><text fill="currentColor" x="-9" dy="0.32em">460</text></g><g class="tick" opacity="1" transform="translate(0,414.54545454545456)"><line stroke="currentColor" x2="-6"/><text fill="currentColor" x="-9" dy="0.32em">470</text></g><g class="tick" opacity="1" transform="translate(0,362.72727272727275)"><line stroke="currentColor" x2="-6"/><text fill="currentColor" x="-9" dy="0.32em">480</text></g><g class="tick" opacity="1" transform="translate(0,310.9090909090909)"><line stroke="currentColor" x2="-6"/><text fill="currentColor" x="-9" dy="0.32em">490</text></g><g class="tick" opacity="1" transform="translate(0,259.0909090909091)"><line stroke="currentColor" x2="-6"/><text fill="currentColor" x="-9" dy="0.32em">500</text></g><g class="tick" opacity="1" transform="translate(0,207.27272727272728)"><line stroke="currentColor" x2="-6"/><text fill="currentColor" x="-9" dy="0.32em">510</text></g><g class="tick" opacity="1" transform="translate(0,155.45454545454544)"><line stroke="currentColor" x2="-6"/><text fill="currentColor" x="-9" dy="0.32em">520</text></g><g class="tick" opacity="1" transform="translate(0,103.63636363636361)"><line stroke="currentColor" x2="-6"/><text fill="currentColor" x="-9" dy="0.32em">530</text></g><g class="tick" opacity="1" transform="translate(0,51.818181818181834)"><line stroke="currentColor" x2="-6"/><text fill="currentColor" x="-9" dy="0.32em">540</text></g><g class="tick" opacity="1" transform="translate(0,0)"><line stroke="currentColor" x2="-6"/><text fill="currentColor" x="-9" dy="0.32em">550</text></g><text x="4" text-anchor="start" dominant-baseline="hanging" style="font-family: Arial, sans-serif; font-size: 12px; fill: rgb(123, 123, 123); font-weight: bold;">收盤價</text></g></g><g id="viz"><g><path d="M0,502.6363636363636C4.038461538461539,502.6363636363636,4.038461538461539,520.7727272727273,8.076923076923078,520.7727272727273C12.115384615384617,520.7727272727273,12.115384615384617,474.1363636363636,16.153846153846157,474.1363636363636C20.192307692307693,474.1363636363636,20.192307692307693,474.1363636363636,24.23076923076923,474.1363636363636C36.34615384615385,474.1363636363636,36.34615384615385,357.5454545454545,48.46153846153846,357.5454545454545C52.5,357.5454545454545,52.5,331.6363636363636,56.53846153846154,331.6363636363636C60.57692307692308,331.6363636363636,60.57692307692308,339.40909090909093,64.61538461538463,339.40909090909093C68.65384615384616,339.40909090909093,68.65384615384616,329.04545454545456,72.6923076923077,329.04545454545456C76.73076923076923,329.04545454545456,76.73076923076923,259.0909090909091,80.76923076923077,259.0909090909091C92.88461538461539,259.0909090909091,92.88461538461539,233.18181818181816,105,233.18181818181816C109.03846153846155,233.18181818181816,109.03846153846155,243.54545454545453,113.07692307692308,243.54545454545453C165.57692307692307,243.54545454545453,165.57692307692307,36.27272727272725,218.07692307692307,36.27272727272725C222.1153846153846,36.27272727272725,222.1153846153846,145.09090909090907,226.15384615384616,145.09090909090907C230.19230769230768,145.09090909090907,230.19230769230768,103.63636363636361,234.23076923076923,103.63636363636361C238.26923076923077,103.63636363636361,238.26923076923077,51.818181818181834,242.3076923076923,51.818181818181834C246.34615384615384,51.818181818181834,246.34615384615384,41.45454545454547,250.3846153846154,41.45454545454547C262.5,41.45454545454547,262.5,124.36363636363635,274.61538461538464,124.36363636363635C278.6538461538462,124.36363636363635,278.6538461538462,139.90909090909093,282.69230769230774,139.90909090909093C286.7307692307693,139.90909090909093,286.7307692307693,51.818181818181834,290.7692307692308,51.818181818181834C294.8076923076923,51.818181818181834,294.8076923076923,51.818181818181834,298.84615384615387,51.818181818181834C302.8846153846154,51.818181818181834,302.8846153846154,25.909090909090885,306.92307692307696,25.909090909090885C319.03846153846155,25.909090909090885,319.03846153846155,46.63636363636362,331.1538461538462,46.63636363636362C335.19230769230774,46.63636363636362,335.19230769230774,25.909090909090885,339.2307692307692,25.909090909090885C343.2692307692308,25.909090909090885,343.2692307692308,129.54545454545456,347.3076923076923,129.54545454545456C351.34615384615387,129.54545454545456,351.34615384615387,113.99999999999997,355.3846153846154,113.99999999999997C359.4230769230769,113.99999999999997,359.4230769230769,165.8181818181818,363.46153846153845,165.8181818181818C375.5769230769231,165.8181818181818,375.5769230769231,171.00000000000003,387.6923076923077,171.00000000000003C391.7307692307692,171.00000000000003,391.7307692307692,176.1818181818182,395.7692307692308,176.1818181818182C399.8076923076923,176.1818181818182,399.8076923076923,222.81818181818178,403.84615384615387,222.81818181818178C407.88461538461536,222.81818181818178,407.88461538461536,165.8181818181818,411.9230769230769,165.8181818181818C415.96153846153845,165.8181818181818,415.96153846153845,202.09090909090907,420,202.09090909090907C444.2307692307692,202.09090909090907,444.2307692307692,145.09090909090907,468.46153846153845,145.09090909090907C472.5,145.09090909090907,472.5,160.63636363636365,476.53846153846155,160.63636363636365C480.5769230769231,160.63636363636365,480.5769230769231,176.1818181818182,484.6153846153846,176.1818181818182C496.73076923076917,176.1818181818182,496.73076923076917,150.27272727272728,508.8461538461538,150.27272727272728C512.8846153846155,150.27272727272728,512.8846153846155,134.72727272727272,516.923076923077,134.72727272727272C520.9615384615386,134.72727272727272,520.9615384615386,150.27272727272728,525,150.27272727272728C529.0384615384615,150.27272727272728,529.0384615384615,145.09090909090907,533.0769230769231,145.09090909090907C537.1153846153846,145.09090909090907,537.1153846153846,191.7272727272727,541.1538461538462,191.7272727272727C553.2692307692308,191.7272727272727,553.2692307692308,176.1818181818182,565.3846153846155,176.1818181818182C569.4230769230769,176.1818181818182,569.4230769230769,207.27272727272728,573.4615384615385,207.27272727272728C577.5,207.27272727272728,577.5,202.09090909090907,581.5384615384615,202.09090909090907C585.5769230769231,202.09090909090907,585.5769230769231,233.18181818181816,589.6153846153846,233.18181818181816C593.6538461538462,233.18181818181816,593.6538461538462,165.8181818181818,597.6923076923077,165.8181818181818C609.8076923076924,165.8181818181818,609.8076923076924,196.9090909090909,621.9230769230769,196.9090909090909C625.9615384615385,196.9090909090909,625.9615384615385,171.00000000000003,630,171.00000000000003C634.0384615384615,171.00000000000003,634.0384615384615,88.0909090909091,638.0769230769231,88.0909090909091C642.1153846153846,88.0909090909091,642.1153846153846,62.1818181818182,646.1538461538462,62.1818181818182C650.1923076923076,62.1818181818182,650.1923076923076,56.999999999999986,654.2307692307692,56.999999999999986C666.3461538461538,56.999999999999986,666.3461538461538,98.45454545454545,678.4615384615385,98.45454545454545C682.5,98.45454545454545,682.5,129.54545454545456,686.5384615384615,129.54545454545456C690.5769230769231,129.54545454545456,690.5769230769231,103.63636363636361,694.6153846153846,103.63636363636361C698.6538461538462,103.63636363636361,698.6538461538462,77.72727272727272,702.6923076923077,77.72727272727272C706.7307692307693,77.72727272727272,706.7307692307693,88.0909090909091,710.7692307692308,88.0909090909091" stroke="#1f77b4" fill="none"/><text font-family="sans-serif" font-size="10" class="labels" x="306.92307692307696" y="25.909090909090885" dx="0" dy="-4" text-anchor="middle"/></g></g></g><text y="4" x="4" style="font-family: Arial, sans-serif; font-size: 12px; fill: black; font-weight: bold; dominant-baseline: hanging;"/></g><g id="grid"><rect x="0" y="0" width="810" height="600" fill="none" stroke="#ccc"/></g></g></svg>